<?xml version="1.0" standalone="no"?>
<!DOCTYPE svg PUBLIC "-//W3C//DTD SVG 20010904//EN"
 "http://www.w3.org/TR/2001/REC-SVG-20010904/DTD/svg10.dtd">
<svg version="1.0" xmlns="http://www.w3.org/2000/svg"
 width="344.000000pt" height="344.000000pt" viewBox="0 0 344.000000 344.000000"
 preserveAspectRatio="xMidYMid meet">
<metadata>
Created by potrace 1.16, written by Peter Selinger 2001-2019
</metadata>
<g transform="translate(0.000000,344.000000) scale(0.100000,-0.100000)" stroke="none">
<path d="M1120 2935 c-266 -55 -517 -174 -589 -278 -187 -273 -367 -931 -397
-1449 -6 -116 -6 -118 22 -165 106 -182 370 -337 687 -403 117 -24 200 -29
221 -11 8 7 45 54 81 104 l65 91 -78 22 c-219 63 -472 209 -472 273 0 27 34
61 61 61 12 0 42 -15 68 -33 220 -159 576 -257 931 -257 355 0 711 98 931 257
26 18 56 33 68 33 28 0 61 -34 61 -65 0 -62 -251 -204 -478 -270 l-73 -21 66
-91 c36 -50 73 -97 81 -104 21 -18 104 -13 221 11 309 64 557 206 675 385 l40
60 -7 125 c-27 503 -204 1154 -390 1434 -80 120 -312 233 -601 291 -135 28
-202 31 -227 13 -9 -7 -23 -30 -32 -51 -18 -43 -25 -38 90 -62 129 -27 262
-73 380 -130 122 -60 155 -85 155 -119 0 -24 -37 -66 -59 -66 -6 0 -44 18 -84
39 -260 143 -637 219 -944 191 -259 -23 -470 -79 -659 -175 -59 -30 -113 -55
-119 -55 -21 0 -55 41 -55 65 0 35 31 60 155 120 118 57 251 103 380 130 115
24 108 19 90 62 -9 21 -23 44 -32 51 -25 18 -104 14 -233 -13z m235 -1034 c51
-23 99 -72 127 -130 33 -68 31 -178 -5 -247 -50 -97 -147 -154 -236 -139 -186
31 -266 300 -136 452 65 77 166 103 250 64z m900 -2 c135 -63 186 -251 108
-391 -35 -62 -102 -113 -164 -123 -89 -15 -186 42 -236 139 -36 69 -38 179 -5
247 62 127 186 180 297 128z"/>
</g>
</svg>
