<?xml version="1.0" encoding="utf-8"?>
<!-- Generator: Adobe Illustrator 21.0.0, SVG Export Plug-In . SVG Version: 6.00 Build 0)  -->
<svg version="1.1" id="Layer_1" xmlns="http://www.w3.org/2000/svg" xmlns:xlink="http://www.w3.org/1999/xlink" x="0px" y="0px"
	 viewBox="0 0 544 166.7" style="enable-background:new 0 0 544 166.7;" xml:space="preserve">
<style type="text/css">
	.st0{fill:#FFFFFF;}
</style>
<g>
	<path class="st0" d="M174.7,46h1.6l1.8,3.2h1.6l-2.1-3.4c0.5-0.1,0.9-0.4,1.2-0.9c0.3-0.5,0.5-1,0.5-1.6c0-0.8-0.2-1.5-0.6-1.9
		c-0.4-0.4-1-0.6-1.9-0.6h-3.4v8.5h1.3V46z M174.7,41.9h2c0.5,0,0.8,0.1,1,0.4c0.2,0.2,0.3,0.6,0.3,1.1c0,0.5-0.1,0.9-0.4,1.1
		c-0.3,0.2-0.6,0.4-1.1,0.4h-1.8V41.9z"/>
	<path class="st0" d="M188.2,46.9h3.2l0.8,2.3h1.3l-2.9-8.5h-1.4l-3,8.5h1.3L188.2,46.9z M189.7,42.1l1.2,3.6h-2.4L189.7,42.1z"/>
	<path class="st0" d="M203.4,49.3c1,0,2-0.3,2.9-0.8v-3.9h-2.9v1.2h1.6v2c-0.4,0.2-0.9,0.3-1.5,0.3c-0.8,0-1.5-0.3-1.9-0.8
		c-0.4-0.5-0.6-1.3-0.6-2.4c0-1.1,0.2-1.9,0.6-2.4c0.4-0.5,1-0.8,1.9-0.8c0.4,0,0.8,0.1,1.1,0.2c0.4,0.1,0.8,0.3,1.3,0.6v-1.3
		c-0.8-0.4-1.7-0.6-2.6-0.6c-1.2,0-2.1,0.4-2.7,1.1c-0.6,0.7-0.9,1.8-0.9,3.3c0,1.5,0.3,2.6,0.9,3.3C201.4,49,202.3,49.3,203.4,49.3
		z"/>
	<polygon class="st0" points="215.1,42.9 219.3,49.2 220.4,49.2 220.4,40.7 219.2,40.7 219.2,46.9 215.1,40.7 213.9,40.7 
		213.9,49.2 215.1,49.2 	"/>
	<path class="st0" d="M229.3,46.9h3.2l0.8,2.3h1.3l-2.9-8.5h-1.4l-3,8.5h1.3L229.3,46.9z M230.9,42.1l1.2,3.6h-2.4L230.9,42.1z"/>
	<path class="st0" d="M242.7,46h1.6l1.8,3.2h1.6l-2.1-3.4c0.5-0.1,0.9-0.4,1.2-0.9c0.3-0.5,0.5-1,0.5-1.6c0-0.8-0.2-1.5-0.6-1.9
		c-0.4-0.4-1-0.6-1.9-0.6h-3.4v8.5h1.3V46z M242.7,41.9h2c0.5,0,0.8,0.1,1,0.4c0.2,0.2,0.3,0.6,0.3,1.1c0,0.5-0.1,0.9-0.4,1.1
		c-0.3,0.2-0.6,0.4-1.1,0.4h-1.8V41.9z"/>
	<path class="st0" d="M257.9,49.3c1.2,0,2.1-0.4,2.7-1.1c0.6-0.7,0.9-1.8,0.9-3.3c0-1.5-0.3-2.6-0.9-3.3c-0.6-0.7-1.5-1.1-2.7-1.1
		c-1.2,0-2.1,0.4-2.7,1.1c-0.6,0.7-0.9,1.8-0.9,3.3c0,1.4,0.3,2.5,0.9,3.3C255.8,49,256.7,49.3,257.9,49.3z M256.1,42.5
		c0.4-0.5,0.9-0.7,1.7-0.7s1.4,0.2,1.7,0.7c0.4,0.5,0.6,1.3,0.6,2.4c0,1.1-0.2,1.9-0.5,2.4c-0.4,0.5-0.9,0.8-1.7,0.8
		c-0.8,0-1.4-0.2-1.7-0.7c-0.4-0.5-0.6-1.3-0.6-2.4C255.6,43.8,255.8,43,256.1,42.5z"/>
	<polygon class="st0" points="270,46.4 270.7,45.6 273.3,49.2 275,49.2 271.6,44.5 274.7,40.7 273.1,40.7 270,44.8 270,40.7 
		268.7,40.7 268.7,49.2 270,49.2 	"/>
	<path class="st0" d="M294.3,40.6c-1.2,0-2.1,0.4-2.7,1.1c-0.6,0.7-0.9,1.8-0.9,3.3c0,1.4,0.3,2.5,0.9,3.3c0.6,0.7,1.5,1.1,2.7,1.1
		c1.2,0,2.1-0.4,2.7-1.1c0.6-0.7,0.9-1.8,0.9-3.3c0-1.5-0.3-2.6-0.9-3.3C296.3,40.9,295.4,40.6,294.3,40.6z M296,47.4
		c-0.4,0.5-0.9,0.8-1.7,0.8c-0.8,0-1.4-0.2-1.7-0.7c-0.4-0.5-0.6-1.3-0.6-2.4c0-1.1,0.2-1.9,0.6-2.4c0.4-0.5,0.9-0.7,1.7-0.7
		s1.4,0.2,1.7,0.7c0.4,0.5,0.6,1.3,0.6,2.4C296.5,46.1,296.3,46.9,296,47.4z"/>
	<polygon class="st0" points="306.3,42.9 310.5,49.2 311.7,49.2 311.7,40.7 310.4,40.7 310.4,46.9 306.4,40.7 305.1,40.7 
		305.1,49.2 306.3,49.2 	"/>
	<polygon class="st0" points="324.2,48 320.5,48 320.5,40.7 319.3,40.7 319.3,49.2 324.2,49.2 	"/>
	<rect x="331.2" y="40.7" class="st0" width="1.3" height="8.5"/>
	<polygon class="st0" points="341.3,42.9 345.5,49.2 346.6,49.2 346.6,40.7 345.4,40.7 345.4,46.9 341.3,40.7 340.1,40.7 
		340.1,49.2 341.3,49.2 	"/>
	<polygon class="st0" points="359.3,48 355.5,48 355.5,45.5 358.8,45.5 358.8,44.3 355.5,44.3 355.5,41.9 359.3,41.9 359.3,40.7 
		354.2,40.7 354.2,49.2 359.3,49.2 	"/>
	<g>
		<path class="st0" d="M296.6,60c-5.8,0-10.9,0-16,0c2.4,2.2,3.8,4.5,3.8,7.7c-0.1,15.6,0,31.1,0,46.7c0,0.9-0.3,1.8-0.4,2.7
			c-0.3,0.2-0.6,0.3-0.9,0.5c-0.5-0.7-1-1.5-1.5-2.2c-10.5-15.7-20.9-31.4-31.4-47c-1.7-2.6-3.6-5-1.4-8.2c-7.8,0-15.3,0-22.9,0
			c4.5,2.8,4.9,7,4.8,11.5c0,19.4,0,38.8,0,58.3c0,4.2-0.6,8-4.7,10.5c7.2,0,14.4,0,21,0c-0.8-2.8-2.2-5.6-2.3-8.3
			c-0.2-14.3-0.1-28.6-0.1-42.9c0-0.9,0.5-1.8,0.9-3.5c1.4,2,2.3,3.2,3.1,4.5c10.4,15.2,20.8,30.4,31.1,45.6
			c0.8,1.2,1.1,2.8,1.7,4.5c4.3,0,9.3,0,13.6,0c-1-1.7-2.4-3.3-2.9-5.1c-0.7-2.7-1.1-5.6-1.1-8.5c-0.1-16.6-0.1-33.3-0.1-49.9
			C291,70.7,290.4,64.5,296.6,60z"/>
	</g>
	<g>
		<path class="st0" d="M225.9,127.5c-0.9,0.3-1.8,0.5-2.6,0.9c-4.5,2.7-8.9,5.9-14.5,6c-4.6,0.1-9.2,0.1-13.7,0
			c-5.8-0.2-7.8-2.3-7.8-8.2c0-18.2,0-36.5,0-54.7c0-4.4,1.7-6.5,6.2-6.8c4.5-0.3,9-0.1,13.5-0.3c5.8-0.2,10.7,1.7,15,5.4
			c0.6,0.5,1.2,1.1,1.9,1.5c0.6,0.3,1.3,0.4,1.9,0.6c0.2-0.6,0.6-1.4,0.5-1.9c-0.8-2.9-1.7-5.8-2.7-8.7c-0.7-2.2-2.1-3.1-4.6-3.1
			c-17.7,0.1-35.4,0.1-53.1,0.1c-0.9,0-1.7,0.1-2.6,0.1c-0.3,0.4-0.7,0.8-1,1.2c0.8,0.3,1.8,0.6,2.5,1c3.4,2.3,4.7,5.5,4.7,9.6
			c-0.1,19.4,0,38.8-0.1,58.2c0,1.4-0.2,2.9-0.4,4.3c-0.6,3.5-3,5.5-6.3,6.8c0.1,0.3,0.2,0.5,0.3,0.8c1,0.1,2.1,0.2,3.1,0.2
			c17.3,0,34.7-0.1,52,0.1c3.2,0,5.2-1,6.2-3.9c0.7-2,1.4-4.1,1.9-6.1C226.5,129.6,226.1,128.5,225.9,127.5z"/>
	</g>
	<path class="st0" d="M436.5,99c-1.3-2.4-0.7-3.9,1.3-5.8c3.1-3.1,6.3-6.3,8.2-10c4.9-9.2,4.9-18.9,2.4-28.9
		c-3-12.1-12.7-20.7-26.4-23.1c-12.7-2.2-25.3-2-38.1-0.5c-2.5,0.3-5.2-0.2-7.8-0.4c-2.6-0.2-5.3-0.5-8.8-0.8c1.9,2.6,3.6,4,4.1,5.8
		c1.5,5.6,3.5,11.2,3.6,16.9c0.4,23.8,0.1,47.5,0.2,71.3c0,4.8-0.8,9.2-4.1,13.2c-1.8,2.2-0.8,3.4,2.6,3.5c6.9,0.1,13.9,0,20.8,0
		c0.8,0,1.6-0.3,2.4-0.5c-5.2-8.1-5.2-8.1-5.2-17.9c0-9.4,0-18.7,0-28.1c0-16.4,0-32.7,0-49.1c0-5,2.2-6.9,7.8-7
		c2.2,0,4.5-0.1,6.7,0c8.7,0.5,15.2,4.1,19.3,11c4,6.7,4.5,13.9,3.9,21.2c-0.9,12.5-4.7,23.7-17.8,30.8c-1.8,1-3.4,2.1-5,3.3
		c-0.7,0.6-1.2,1.4-2.5,3c3,0,5.1,0.2,7.1-0.1c3.8-0.6,6.4,0.5,8.9,3.3c14.7,16,29.6,31.9,44.4,47.8c0.9,1,2,1.9,3,2.9
		c0.4-0.2,0.8-0.4,1.3-0.5c-0.3-1-0.5-2-1-2.9C457.5,138,447,118.5,436.5,99z"/>
	<path class="st0" d="M535.8,61.9c-2.5-9.8-9.6-16.7-17.1-22.9c-8.8-7.2-18.5-10.8-30-6.9c-10.3,3.5-19.3,8.6-25.6,17.6
		c-7.1,10.3-9.4,21.9-9.5,34.2c-0.2,13.5,1.6,26.5,9.6,37.9c9.6,13.7,26.9,21.1,41,17.2c10.1-2.8,18.8-8.1,25.3-16.8
		c8.4-11.3,10-24.3,10.2-37.9C538.3,76.8,537.6,69.2,535.8,61.9z M520,107c-2.6,11.6-10,20-21.1,24.3c-2.6,1-6.8,0.2-9.3-1.3
		c-9.5-5.7-14.9-14.8-17.6-25.4c-1.3-5.2-1.8-10.6-2.4-14.4c1-12.6,0.8-23.8,6.1-34c4.1-8,10.6-13.7,18.9-16.6
		c2.5-0.9,6.5,0.3,8.9,1.9c8.8,5.7,14,14.2,16.8,24.2C524.3,79.6,523,93.4,520,107z"/>
	<g>
		<path class="st0" d="M372.8,60c-24.7,0-49.4,0-74.1,0c1,1.7,2.3,2.7,3.3,4c1.6,2,3.5,2.5,5.9,2.4c5.8-0.1,11.7,0,17.5,0
			c3.2,0,3.6,0.4,3.6,3.5c0,20.8,0,41.7,0,62.5c0,2.7-1.1,4.6-3.2,6.2c-0.6,0.4-1.2,0.9-2.2,1.6c8.2,0,15.9,0,22.8,0
			c-1.1-2.9-3.1-5.8-3.2-8.7c-0.3-20.6-0.2-41.2-0.1-61.7c0-3.2,0.3-3.4,3.6-3.5c6,0,12,0,18.1,0C367.3,66.4,372.1,62.4,372.8,60z"
			/>
	</g>
	<g>
		<path class="st0" d="M217.7,96.1c-6.7-2.4-13.6-3.4-20.5-1.1c-2,0.6-4.5,0.7-5.7,3.5c1.3,0.4,2.8,1.3,3.6,0.9
			c2.5-1.2,4.6-0.1,6.8,0.5c8.1,2.2,15.7,5.5,21.7,11.7c0.6,0.6,1.3,1.1,2.5,2c0.1-1.5,0.3-2.4,0.1-3.2c-0.6-2.7-1.3-5.4-2.1-8
			C223.1,99.3,220.8,97.2,217.7,96.1z"/>
	</g>
	<g>
		<g>
			<path class="st0" d="M156,114c-5.6,4.4-11.4,8.4-17.9,11c-2,0.8-4,1.5-6.1,2c-6.6,1.6-13.2,1.9-19.4,0.4
				c-3.9-0.9-7.6-2.6-11.1-5.1c0-0.1,0-0.1-0.1-0.2c-0.2-1.1-0.2-2.4,0.1-3.8c0.2-0.9,0.3-1.9,0.8-2.6c2.2-3.6,4.5-7.2,6.9-10.6
				c2.1-6.8,3.2-14.1,3.2-21.7c0-7.3-1.1-14.4-3-21c-3.9-3.9-6.7-8.6-8-14.1c-0.3-1.2-0.2-2.4,0-3.5c0.1-0.4,0.3-0.9,0.4-1.2
				c0.1-0.3,0.3-0.6,0.5-0.9c1.3-1,2.7-2,4.1-2.8c5.1-2.9,11-4.3,17.2-4.2c3.8,0.1,7.7,0.8,11.8,2.1c8,2.7,13.7,7.9,18.2,14.7
				c1.5,2.2,2.9,4.4,4.4,6.6c0.3,0,0.7-0.1,1-0.1c0.4-1.4,1-2.9,1.1-4.3c0.2-3.3,0-6.6,0.1-9.9c0.1-3.5-1.5-6-4.7-7.1
				c-5-1.8-10.1-3.8-15.3-4.9c-5.2-1-10.5-2-15.8-2.4c1-3.9,2.8-7.4,5.3-10.6c0.2-0.2,0.3-0.5,0.5-0.7c0.2-0.2,0.3-0.5,0.5-0.7
				c-0.2-0.2-0.4-0.3-0.6-0.5c-1,0.9-2.1,1.9-3.2,2.8c-1.3,1.1-2.5,2.2-3.7,3.4c-1.9,2-3.7,4.1-5.5,6.3c-5.1,0.3-10.1,1.5-15,3.3
				c-0.4-0.4-0.7-1.2-1.1-2.4c-2.6-8-5.2-16.1-7.9-24.1c-0.2-0.5-0.4-1-0.6-1.5c-0.4,1.1-0.5,2-0.5,3c-0.3,8-0.6,16-0.9,24
				c0,0.4,0,0.8,0,1.2c-0.1,2.6-0.9,4.3-3.3,5.7c-4,2.5-7.6,5.5-11.2,8.4c-1.2,1-1.9,1.3-3.4,0.7c-6.7-2.9-13.5-5.7-20.3-8.5
				c-0.6-0.3-1.3-0.5-1.9-0.7c0.1,0.6,0.4,1,0.7,1.3c5.1,5.9,10.2,11.8,15.4,17.7c0.8,0.9,0.9,1.6,0.4,2.8c-2,4.7-3.8,9.6-5.7,14.4
				c-0.3,0.9-0.3,2-0.8,2.6c-0.6,0.6-1.7,0.9-2.6,1c-0.3,0.1-1.1-0.6-1.1-0.9c0.2-4.1,0.4-8.1,0.7-12.2c0.1-1,0.4-1.9,0.6-2.9
				c-0.2-0.1-0.4-0.2-0.6-0.3c-1.3,1.8-2.7,3.5-3.9,5.4c-1.6,2.5-2.9,5.2-4.4,7.8c-1.6,2.7-4,4.1-7.2,4.4
				c-10.6,0.8-21.3,1.6-31.9,2.4c-2.2,0.2-4.5,0.3-6.7,0.5c0,0.2,0,0.3,0,0.5c0.7,0,1.4,0.1,2.1,0.1c12.2,0.9,24.3,1.8,36.5,2.7
				c3.4,0.3,5.9,1.9,7.5,4.9c1.4,2.6,2.7,5.2,4.3,7.6c1.1,1.8,2.5,3.4,3.8,5.1c-0.3-5.5-0.7-10.8-1-16.1c3.6-0.3,3.5-0.2,4.5,2.6
				c1.8,5.1,3.8,10.2,5.9,15.2c0.5,1.3,0.5,2-0.4,3.1c-5.5,6.2-10.9,12.5-16.6,19.1c0.9-0.3,1.4-0.5,1.9-0.7
				c7.1-2.9,14.2-5.8,21.3-8.8c1.2-0.5,1.9-0.2,2.9,0.6c1.1,0.9,2.2,1.9,3.4,2.8c3.2,3.8,6.8,6.9,10.9,9.6c0.3,0.8,0.4,1.7,0.5,2.8
				c0,0,0,0,0,0c0.2,8.2,0.6,16.4,0.9,24.6c0,0.8,0.1,1.6,0.2,2.4c0.7-0.7,0.9-1.3,1.2-2c2.4-7.4,4.8-14.7,7.2-22.1
				c0.1-0.2,0.1-0.4,0.2-0.6c2.1,0.9,4.3,1.7,6.6,2.3c4.3,1.3,8.6,1.7,12.7,1.4c0.9,1.1,2,2.2,3,3.2c0.8,0.8,1.6,1.5,2.4,2.2
				c1,0.9,2.1,1.8,3.1,2.6c0.3,0.3,0.8,0.4,1.7,0.9c-0.5-0.7-0.9-1.2-1.2-1.6c-0.2-0.2-0.3-0.4-0.5-0.6c-1.7-2.3-3-4.7-4-7.2
				c3.8-0.7,7.6-1.8,11.4-3.3c11.8-4.6,19.8-13.4,25.7-24.6C159.2,110.4,157.6,112.7,156,114z M96.4,50.8c-0.2,2.9-2.6,5.9-5.5,7.6
				c1.3-3.4,3-6.4,4.9-9.1C96,49.8,96.2,50.3,96.4,50.8z M89.8,107.9c3,1.3,5,3.7,6.2,6.9c0.2,0.5,0.2,1,0.3,1.8
				c-0.1,0.3-0.2,0.6-0.3,0.9C93.3,114.6,91.3,111.4,89.8,107.9z M98.5,107.9c-2.2-1.5-4.2-3.3-6-5.2c-2.4-2.6-4.4-5.6-6.2-9
				c1.8,1.2,3.4,2.2,4.9,2.9c6.2,3.1,10.2,2.1,17.9-3.2C106.6,99.1,103.2,103.9,98.5,107.9z M97.3,94.9c-2.6-0.1-4.9-1-6.8-2.5
				c-2.7-2.2-4.4-5.5-4.3-9.2c0.1-3.5,1.7-6.5,4.2-8.6c2-1.6,4.6-2.5,7.4-2.5c6.2,0.2,11.1,5.3,11,11.5
				C108.7,90,103.4,95.2,97.3,94.9z M108.9,73.5c-7.6-5.1-12-6.1-17.7-3.2c-1.4,0.7-2.9,1.6-4.5,2.8c1.5-3.2,3.5-6.1,5.8-8.6
				c1.7-1.9,3.7-3.7,5.8-5.2C102,61.5,107.4,68.8,108.9,73.5z"/>
		</g>
		<g>
			<path class="st0" d="M97.7,77.2c-3.5-0.1-6.5,2.8-6.4,6.4c0,3.5,2.8,6.3,6.3,6.3c3.5,0,6.3-2.8,6.3-6.2
				C103.9,80.1,101.2,77.2,97.7,77.2z"/>
		</g>
	</g>
</g>
</svg>
